<?xml version="1.0" encoding="UTF-8"?>
<svg width="511px" height="148px" viewBox="0 0 511 148" version="1.1" xmlns="http://www.w3.org/2000/svg" xmlns:xlink="http://www.w3.org/1999/xlink">
    <!-- Generator: Sketch 54.1 (76490) - https://sketchapp.com -->
    <title>Group 2</title>
    <desc>Created with Sketch.</desc>
    <g id="Page-1" stroke="none" stroke-width="1" fill="none" fill-rule="evenodd">
        <g id="Group-2" transform="translate(-2.635999, -4.000000)">
            <g id="Group">
                <path d="M27.2,44.2 L39.4,26.2 C41.6,22.9 44.8,21.1 48.5,21.1 C54.5,21.1 59.6,26.2 59.6,32.1 C59.6,34.2 59,36.3 57.9,37.9 L46.7,54.2 L60.3,71.6 C61.7,73.3 62.4,75.3 62.4,77.6 C62.4,83.7 57.4,88.8 51.4,88.8 C48.3,88.8 45.3,87.5 43.7,85.5 L27.2,64.6 L27.2,76.1 C27.2,83.8 22.8,88.8 16.2,88.8 C9.3,88.8 5,83.9 5,76.2 L5,33.4 C5,26.1 9.4,21.1 16,21.1 C19.2,21.1 22.3,22.5 24.3,24.8 C26.4,27 27.2,29.5 27.2,33.5 L27.2,44.2 Z M91.3,34.8 L91.3,76.1 C91.3,80.3 90.5,82.9 88.5,85.1 C86.4,87.4 83.2,88.8 80.3,88.8 C77.3,88.8 74,87.4 72.1,85.3 C70,83 69.3,80.7 69.3,76.1 L69.3,34.8 C69.3,29.2 69.8,27.2 72.1,24.7 C74.1,22.4 77,21.1 80.2,21.1 C83.4,21.1 86.4,22.4 88.4,24.6 C90.6,27.1 91.3,29.4 91.3,34.8 Z M165.5,68.9 C165.5,72.9 163,77.1 158.3,81.2 C151.8,86.8 143.5,90 135,90 C115.5,90 99.7,74.4 99.7,55.1 C99.7,35.7 115.6,20 135.1,20 C143.2,20 151,22.8 157.4,28.1 C162.8,32.4 165.5,36.9 165.5,41.3 C165.5,47.3 160.6,52.3 154.5,52.3 C151.9,52.3 149.1,51.2 147.6,49.6 L144.4,46.1 C142,43.5 138.5,42.1 134.9,42.1 C127.6,42.1 121.8,47.8 121.8,55.1 C121.8,62.3 127.6,68.1 134.8,68.1 C138.4,68.1 142,66.5 144.6,63.7 L146.9,61.3 C148.7,59.4 151.7,58.1 154.5,58.1 C160.3,58.1 165.5,63.2 165.5,68.9 Z M195.4,44.2 L207.6,26.2 C209.8,22.9 213,21.1 216.7,21.1 C222.7,21.1 227.8,26.2 227.8,32.1 C227.8,34.2 227.2,36.3 226.1,37.9 L214.9,54.2 L228.5,71.6 C229.9,73.3 230.6,75.3 230.6,77.6 C230.6,83.7 225.6,88.8 219.6,88.8 C216.5,88.8 213.5,87.5 211.9,85.5 L195.4,64.6 L195.4,76.1 C195.4,83.8 191,88.8 184.4,88.8 C177.5,88.8 173.2,83.9 173.2,76.2 L173.2,33.4 C173.2,26.1 177.6,21.1 184.2,21.1 C187.4,21.1 190.5,22.5 192.5,24.8 C194.6,27 195.4,29.5 195.4,33.5 L195.4,44.2 Z" id="Kick" fill="#238189" fill-rule="nonzero" transform="translate(117.800000, 55.000000) rotate(-10.000000) translate(-117.800000, -55.000000) "></path>
                <text id="fluencer" font-family="Poppins-Black, Poppins Black" font-size="100" font-weight="700" fill="#FE674C">
                    <tspan x="73.6859992" y="150.055786">fluencer</tspan>
                </text>
            </g>
        </g>
    </g>
</svg>